<mxfile host="app.diagrams.net" modified="2024-02-13T18:52:56.147Z" agent="Mozilla/5.0 (Macintosh; Intel Mac OS X 10_15_7) AppleWebKit/537.36 (KHTML, like Gecko) Chrome/121.0.0.0 Safari/537.36" etag="0LWW4JsIDGvRGwVbqdfr" version="23.1.2" type="device">
  <diagram name="Page-1" id="13e1069c-82ec-6db2-03f1-153e76fe0fe0">
    <mxGraphModel dx="681" dy="457" grid="0" gridSize="10" guides="1" tooltips="1" connect="1" arrows="1" fold="1" page="1" pageScale="1" pageWidth="1100" pageHeight="850" background="none" math="0" shadow="0">
      <root>
        <mxCell id="0" />
        <mxCell id="1" parent="0" />
        <mxCell id="FtavBVc0JkkT6MMXHdZE-1" value="Uživatel" style="shape=umlActor;verticalLabelPosition=bottom;verticalAlign=top;html=1;outlineConnect=0;" parent="1" vertex="1">
          <mxGeometry x="84" y="136" width="30" height="60" as="geometry" />
        </mxCell>
        <mxCell id="FtavBVc0JkkT6MMXHdZE-2" value="Pracovnik" style="shape=umlActor;verticalLabelPosition=bottom;verticalAlign=top;html=1;outlineConnect=0;" parent="1" vertex="1">
          <mxGeometry x="84" y="353" width="30" height="60" as="geometry" />
        </mxCell>
        <mxCell id="FtavBVc0JkkT6MMXHdZE-3" value="Majitel" style="shape=umlActor;verticalLabelPosition=bottom;verticalAlign=top;html=1;outlineConnect=0;" parent="1" vertex="1">
          <mxGeometry x="84" y="552" width="30" height="60" as="geometry" />
        </mxCell>
        <mxCell id="FtavBVc0JkkT6MMXHdZE-4" value="" style="endArrow=block;endSize=16;endFill=0;html=1;rounded=0;" parent="1" edge="1">
          <mxGeometry width="160" relative="1" as="geometry">
            <mxPoint x="99" y="340" as="sourcePoint" />
            <mxPoint x="98.5" y="229" as="targetPoint" />
          </mxGeometry>
        </mxCell>
        <mxCell id="FtavBVc0JkkT6MMXHdZE-6" value="" style="endArrow=block;endSize=16;endFill=0;html=1;rounded=0;" parent="1" edge="1">
          <mxGeometry width="160" relative="1" as="geometry">
            <mxPoint x="98.64" y="538" as="sourcePoint" />
            <mxPoint x="98.64" y="436" as="targetPoint" />
            <Array as="points">
              <mxPoint x="98.64" y="498" />
              <mxPoint x="98.64" y="473" />
            </Array>
          </mxGeometry>
        </mxCell>
        <mxCell id="FtavBVc0JkkT6MMXHdZE-7" value="psát recenze na&lt;br style=&quot;font-size: 10px;&quot;&gt;kavárn" style="ellipse;whiteSpace=wrap;html=1;fontSize=10;" parent="1" vertex="1">
          <mxGeometry x="272" y="35" width="109.5" height="46" as="geometry" />
        </mxCell>
        <mxCell id="FtavBVc0JkkT6MMXHdZE-8" value="reagovat na recenze" style="ellipse;whiteSpace=wrap;html=1;fontSize=10;" parent="1" vertex="1">
          <mxGeometry x="272" y="95" width="109.5" height="46" as="geometry" />
        </mxCell>
        <mxCell id="FtavBVc0JkkT6MMXHdZE-9" value="psát recenze na akce" style="ellipse;whiteSpace=wrap;html=1;fontSize=10;" parent="1" vertex="1">
          <mxGeometry x="272" y="152" width="109.5" height="46" as="geometry" />
        </mxCell>
        <mxCell id="FtavBVc0JkkT6MMXHdZE-10" value="měnit základní&lt;br style=&quot;font-size: 10px;&quot;&gt;informaci" style="ellipse;whiteSpace=wrap;html=1;fontSize=10;" parent="1" vertex="1">
          <mxGeometry x="272" y="219" width="109.5" height="46" as="geometry" />
        </mxCell>
        <mxCell id="FtavBVc0JkkT6MMXHdZE-11" value="vyhledávat informaci&lt;br style=&quot;font-size: 10px;&quot;&gt;o kavárnách" style="ellipse;whiteSpace=wrap;html=1;fontSize=10;" parent="1" vertex="1">
          <mxGeometry x="272" y="275" width="109.5" height="46" as="geometry" />
        </mxCell>
        <mxCell id="FtavBVc0JkkT6MMXHdZE-12" value="vyhledávat informaci&lt;br style=&quot;font-size: 10px;&quot;&gt;o akcích" style="ellipse;whiteSpace=wrap;html=1;fontSize=10;" parent="1" vertex="1">
          <mxGeometry x="272" y="332" width="109.5" height="46" as="geometry" />
        </mxCell>
        <mxCell id="FtavBVc0JkkT6MMXHdZE-13" value="vytvářet akce" style="ellipse;whiteSpace=wrap;html=1;fontSize=10;" parent="1" vertex="1">
          <mxGeometry x="275" y="559" width="109.5" height="46" as="geometry" />
        </mxCell>
        <mxCell id="FtavBVc0JkkT6MMXHdZE-14" value="" style="endArrow=none;html=1;rounded=0;" parent="1" edge="1">
          <mxGeometry width="50" height="50" relative="1" as="geometry">
            <mxPoint x="127" y="582" as="sourcePoint" />
            <mxPoint x="274" y="581" as="targetPoint" />
          </mxGeometry>
        </mxCell>
        <mxCell id="FtavBVc0JkkT6MMXHdZE-15" value="" style="endArrow=none;html=1;rounded=0;" parent="1" edge="1">
          <mxGeometry width="50" height="50" relative="1" as="geometry">
            <mxPoint x="120" y="185" as="sourcePoint" />
            <mxPoint x="272" y="358" as="targetPoint" />
          </mxGeometry>
        </mxCell>
        <mxCell id="FtavBVc0JkkT6MMXHdZE-16" value="" style="endArrow=none;html=1;rounded=0;" parent="1" edge="1">
          <mxGeometry width="50" height="50" relative="1" as="geometry">
            <mxPoint x="125" y="175.5" as="sourcePoint" />
            <mxPoint x="272" y="174.5" as="targetPoint" />
          </mxGeometry>
        </mxCell>
        <mxCell id="FtavBVc0JkkT6MMXHdZE-17" value="" style="endArrow=none;html=1;rounded=0;" parent="1" edge="1">
          <mxGeometry width="50" height="50" relative="1" as="geometry">
            <mxPoint x="124" y="180" as="sourcePoint" />
            <mxPoint x="272" y="241.5" as="targetPoint" />
          </mxGeometry>
        </mxCell>
        <mxCell id="FtavBVc0JkkT6MMXHdZE-18" value="" style="endArrow=none;html=1;rounded=0;" parent="1" edge="1">
          <mxGeometry width="50" height="50" relative="1" as="geometry">
            <mxPoint x="122" y="183" as="sourcePoint" />
            <mxPoint x="272" y="297.5" as="targetPoint" />
          </mxGeometry>
        </mxCell>
        <mxCell id="FtavBVc0JkkT6MMXHdZE-19" value="" style="endArrow=none;html=1;rounded=0;" parent="1" edge="1">
          <mxGeometry width="50" height="50" relative="1" as="geometry">
            <mxPoint x="125" y="171" as="sourcePoint" />
            <mxPoint x="271" y="118" as="targetPoint" />
          </mxGeometry>
        </mxCell>
        <mxCell id="FtavBVc0JkkT6MMXHdZE-20" value="" style="endArrow=none;html=1;rounded=0;" parent="1" edge="1">
          <mxGeometry width="50" height="50" relative="1" as="geometry">
            <mxPoint x="124" y="165" as="sourcePoint" />
            <mxPoint x="271" y="58" as="targetPoint" />
          </mxGeometry>
        </mxCell>
        <mxCell id="FtavBVc0JkkT6MMXHdZE-21" value="hodnotit kavárny&amp;nbsp;" style="ellipse;whiteSpace=wrap;html=1;fontSize=10;" parent="1" vertex="1">
          <mxGeometry x="507" y="35" width="109.5" height="46" as="geometry" />
        </mxCell>
        <mxCell id="FtavBVc0JkkT6MMXHdZE-22" value="&amp;lt;&amp;lt;include&amp;gt;&amp;gt;" style="html=1;verticalAlign=bottom;endArrow=open;dashed=1;endSize=8;curved=0;rounded=0;entryX=1;entryY=0.5;entryDx=0;entryDy=0;" parent="1" target="FtavBVc0JkkT6MMXHdZE-7" edge="1">
          <mxGeometry x="-0.0361" relative="1" as="geometry">
            <mxPoint x="506" y="58" as="sourcePoint" />
            <mxPoint x="396" y="96" as="targetPoint" />
            <mxPoint as="offset" />
          </mxGeometry>
        </mxCell>
        <mxCell id="FtavBVc0JkkT6MMXHdZE-23" value="odpovidat na recenzi" style="ellipse;whiteSpace=wrap;html=1;fontSize=10;" parent="1" vertex="1">
          <mxGeometry x="507" y="93" width="109.5" height="46" as="geometry" />
        </mxCell>
        <mxCell id="FtavBVc0JkkT6MMXHdZE-24" value="hodnotit recenzi" style="ellipse;whiteSpace=wrap;html=1;fontSize=10;" parent="1" vertex="1">
          <mxGeometry x="507" y="150" width="109.5" height="46" as="geometry" />
        </mxCell>
        <mxCell id="FtavBVc0JkkT6MMXHdZE-27" value="" style="endArrow=classic;html=1;rounded=0;entryX=1;entryY=0.5;entryDx=0;entryDy=0;exitX=0;exitY=0.5;exitDx=0;exitDy=0;" parent="1" source="FtavBVc0JkkT6MMXHdZE-23" target="FtavBVc0JkkT6MMXHdZE-8" edge="1">
          <mxGeometry width="50" height="50" relative="1" as="geometry">
            <mxPoint x="506" y="142" as="sourcePoint" />
            <mxPoint x="431" y="241" as="targetPoint" />
          </mxGeometry>
        </mxCell>
        <mxCell id="FtavBVc0JkkT6MMXHdZE-29" value="" style="endArrow=classic;html=1;rounded=0;entryX=1;entryY=0.5;entryDx=0;entryDy=0;exitX=0;exitY=0.5;exitDx=0;exitDy=0;" parent="1" source="FtavBVc0JkkT6MMXHdZE-24" target="FtavBVc0JkkT6MMXHdZE-8" edge="1">
          <mxGeometry width="50" height="50" relative="1" as="geometry">
            <mxPoint x="513" y="169" as="sourcePoint" />
            <mxPoint x="392" y="128" as="targetPoint" />
          </mxGeometry>
        </mxCell>
        <mxCell id="FtavBVc0JkkT6MMXHdZE-30" value="vyhledávat recenze" style="ellipse;whiteSpace=wrap;html=1;fontSize=10;" parent="1" vertex="1">
          <mxGeometry x="515" y="301" width="109.5" height="46" as="geometry" />
        </mxCell>
        <mxCell id="FtavBVc0JkkT6MMXHdZE-31" value="" style="endArrow=classic;html=1;rounded=0;entryX=1;entryY=0.5;entryDx=0;entryDy=0;" parent="1" target="FtavBVc0JkkT6MMXHdZE-11" edge="1">
          <mxGeometry width="50" height="50" relative="1" as="geometry">
            <mxPoint x="515" y="325" as="sourcePoint" />
            <mxPoint x="391" y="301" as="targetPoint" />
          </mxGeometry>
        </mxCell>
        <mxCell id="FtavBVc0JkkT6MMXHdZE-32" value="" style="endArrow=classic;html=1;rounded=0;entryX=1;entryY=0.5;entryDx=0;entryDy=0;" parent="1" target="FtavBVc0JkkT6MMXHdZE-12" edge="1">
          <mxGeometry width="50" height="50" relative="1" as="geometry">
            <mxPoint x="515" y="325" as="sourcePoint" />
            <mxPoint x="391" y="301" as="targetPoint" />
          </mxGeometry>
        </mxCell>
      </root>
    </mxGraphModel>
  </diagram>
</mxfile>
